<svg width="12" height="12" viewBox="0 0 12 12" fill="none" xmlns="http://www.w3.org/2000/svg">
<path fill-rule="evenodd" clip-rule="evenodd" d="M10.9953 1.21604C11.2296 0.981722 11.2296 0.601823 10.9953 0.367508C10.761 0.133194 10.3811 0.133194 10.1468 0.367508L5.68099 4.83331L1.21518 0.367508C0.980867 0.133194 0.600968 0.133194 0.366654 0.367508C0.132339 0.601823 0.132339 0.981722 0.366654 1.21604L4.83246 5.68184L0.366654 10.1476C0.132339 10.382 0.132339 10.7619 0.366654 10.9962C0.600968 11.2305 0.980867 11.2305 1.21518 10.9962L5.68099 6.53037L10.1468 10.9962C10.3811 11.2305 10.761 11.2305 10.9953 10.9962C11.2296 10.7619 11.2296 10.382 10.9953 10.1476L6.52952 5.68184L10.9953 1.21604Z" fill="#202A32"/>
</svg>
