<svg width="38" height="38" viewBox="0 0 38 38" fill="none" xmlns="http://www.w3.org/2000/svg">
<g filter="url(#filter0_d_2606_2091)">
<rect x="2" y="2" width="30" height="30" rx="2" fill="white"/>
</g>
<path fill-rule="evenodd" clip-rule="evenodd" d="M16.809 8.03809C16.764 8.05881 15.0161 9.2553 12.9248 10.697C9.62177 12.974 9.11453 13.3339 9.06128 13.4383C9.00116 13.5562 9 13.6527 9 18.4865C9 22.2953 9.00872 23.4438 9.03844 23.5432C9.08803 23.7092 9.29073 23.912 9.45676 23.9616C9.54208 23.9871 9.82362 24 10.2927 24H11.0001V19.9359C11.0001 16.3324 11.0056 15.8586 11.0486 15.7556C11.1098 15.6091 11.2325 15.4788 11.3816 15.4021C11.4945 15.3441 11.647 15.3425 17.0002 15.3425C22.3535 15.3425 22.506 15.3441 22.6189 15.4021C22.768 15.4788 22.8907 15.6091 22.9519 15.7556C22.9949 15.8586 23.0004 16.3324 23.0004 19.9359V24H23.7078C24.1769 24 24.4584 23.9871 24.5437 23.9616C24.7098 23.912 24.9125 23.7092 24.962 23.5432C24.9918 23.4437 25.0004 22.2952 25 18.4799L24.9995 13.5453L24.9297 13.4237C24.871 13.3216 24.2497 12.8818 21.0363 10.6684C18.9334 9.21977 17.1826 8.02643 17.1456 8.01649C17.0395 7.98805 16.8981 7.99712 16.809 8.03809ZM15.1975 16.7009C14.9966 16.7883 14.9974 16.7809 15.0071 18.3737L15.0158 19.8105L15.1025 19.8971L15.1891 19.9838H17.0002H18.8114L18.898 19.8971L18.9847 19.8105L18.9934 18.3737C19.0011 17.1081 18.9962 16.9254 18.9523 16.8404C18.8685 16.6785 18.7609 16.6552 18.0978 16.6552H17.5058L17.4952 16.9968C17.4863 17.2841 17.4742 17.3524 17.4193 17.4265C17.1917 17.7333 16.8088 17.7333 16.5812 17.4265C16.5263 17.3524 16.5142 17.2841 16.5053 16.9968L16.4947 16.6552L15.8959 16.6564C15.4566 16.6573 15.2705 16.6691 15.1975 16.7009ZM12.8539 20.7062C12.658 20.8028 12.6564 20.8165 12.6564 22.3258C12.6564 23.8238 12.6602 23.8581 12.8399 23.9511C12.9225 23.9937 13.1561 24 14.6735 24C16.2398 24 16.4212 23.9948 16.5005 23.948C16.549 23.9193 16.6039 23.8624 16.6226 23.8215C16.6454 23.7714 16.6565 23.2781 16.6565 22.315C16.6565 20.9178 16.6549 20.881 16.5923 20.8014C16.4923 20.6743 16.3526 20.6515 15.7346 20.6619L15.1721 20.6714L15.1564 21.0152C15.1432 21.3054 15.1299 21.3742 15.0711 21.4567C14.9281 21.6572 14.605 21.7194 14.4032 21.5853C14.2267 21.468 14.1564 21.2859 14.1564 20.946V20.6558L13.5548 20.6565C13.0727 20.657 12.9335 20.6669 12.8539 20.7062ZM17.5433 20.7003C17.3377 20.7906 17.344 20.7391 17.344 22.3177C17.344 23.2788 17.3551 23.7714 17.3779 23.8215C17.3966 23.8624 17.4515 23.9193 17.4999 23.948C17.5793 23.9948 17.7606 24 19.327 24C20.8444 24 21.078 23.9937 21.1606 23.9511C21.3403 23.8581 21.3441 23.8238 21.3441 22.3258C21.3441 20.81 21.3429 20.8006 21.1417 20.705C21.0584 20.6655 20.9201 20.6558 20.4445 20.6558H19.8512L19.8393 20.9763C19.8259 21.3387 19.7757 21.464 19.5956 21.5855C19.3965 21.7197 19.0722 21.657 18.9294 21.4567C18.8706 21.3742 18.8572 21.3054 18.8441 21.0152L18.8284 20.6714L18.2347 20.6644C17.7877 20.6592 17.6168 20.6681 17.5433 20.7003Z" fill="#415464"/>
<defs>
<filter id="filter0_d_2606_2091" x="0" y="0" width="38" height="38" filterUnits="userSpaceOnUse" color-interpolation-filters="sRGB">
<feFlood flood-opacity="0" result="BackgroundImageFix"/>
<feColorMatrix in="SourceAlpha" type="matrix" values="0 0 0 0 0 0 0 0 0 0 0 0 0 0 0 0 0 0 127 0" result="hardAlpha"/>
<feOffset dx="2" dy="2"/>
<feGaussianBlur stdDeviation="2"/>
<feComposite in2="hardAlpha" operator="out"/>
<feColorMatrix type="matrix" values="0 0 0 0 0 0 0 0 0 0 0 0 0 0 0 0 0 0 0.2 0"/>
<feBlend mode="normal" in2="BackgroundImageFix" result="effect1_dropShadow_2606_2091"/>
<feBlend mode="normal" in="SourceGraphic" in2="effect1_dropShadow_2606_2091" result="shape"/>
</filter>
</defs>
</svg>
