<svg width="38" height="38" viewBox="0 0 38 38" fill="none" xmlns="http://www.w3.org/2000/svg">
<g filter="url(#filter0_d_2606_2082)">
<rect x="2" y="2" width="30" height="30" rx="2" fill="#B11227"/>
</g>
<path d="M12.272 23L19.92 11.8H21.488L13.84 23H12.272ZM13.2 17.832C12.6773 17.832 12.2133 17.704 11.808 17.448C11.4027 17.192 11.088 16.8347 10.864 16.376C10.64 15.9173 10.528 15.3787 10.528 14.76C10.528 14.1413 10.64 13.6027 10.864 13.144C11.088 12.6853 11.4027 12.328 11.808 12.072C12.2133 11.816 12.6773 11.688 13.2 11.688C13.744 11.688 14.2133 11.816 14.608 12.072C15.0133 12.328 15.328 12.6853 15.552 13.144C15.776 13.6027 15.888 14.1413 15.888 14.76C15.888 15.3787 15.776 15.9173 15.552 16.376C15.328 16.8347 15.0133 17.192 14.608 17.448C14.2133 17.704 13.744 17.832 13.2 17.832ZM13.216 16.712C13.6427 16.712 13.9733 16.5467 14.208 16.216C14.4533 15.8747 14.576 15.3893 14.576 14.76C14.576 14.1307 14.4533 13.6507 14.208 13.32C13.9733 12.9787 13.6427 12.808 13.216 12.808C12.7893 12.808 12.448 12.9787 12.192 13.32C11.9467 13.6613 11.824 14.1413 11.824 14.76C11.824 15.3787 11.9467 15.8587 12.192 16.2C12.448 16.5413 12.7893 16.712 13.216 16.712ZM20.544 23.112C20.0213 23.112 19.5573 22.984 19.152 22.728C18.7467 22.472 18.432 22.1147 18.208 21.656C17.984 21.1973 17.872 20.6587 17.872 20.04C17.872 19.4213 17.984 18.8827 18.208 18.424C18.432 17.9653 18.7467 17.608 19.152 17.352C19.5573 17.096 20.0213 16.968 20.544 16.968C21.088 16.968 21.5573 17.096 21.952 17.352C22.3573 17.608 22.672 17.9653 22.896 18.424C23.12 18.8827 23.232 19.4213 23.232 20.04C23.232 20.6587 23.12 21.1973 22.896 21.656C22.672 22.1147 22.3573 22.472 21.952 22.728C21.5573 22.984 21.088 23.112 20.544 23.112ZM20.544 21.992C20.9707 21.992 21.3067 21.8213 21.552 21.48C21.7973 21.1387 21.92 20.6587 21.92 20.04C21.92 19.4213 21.7973 18.9413 21.552 18.6C21.3067 18.2587 20.9707 18.088 20.544 18.088C20.128 18.088 19.792 18.2587 19.536 18.6C19.2907 18.9307 19.168 19.4107 19.168 20.04C19.168 20.6693 19.2907 21.1547 19.536 21.496C19.792 21.8267 20.128 21.992 20.544 21.992Z" fill="white"/>
<defs>
<filter id="filter0_d_2606_2082" x="0" y="0" width="38" height="38" filterUnits="userSpaceOnUse" color-interpolation-filters="sRGB">
<feFlood flood-opacity="0" result="BackgroundImageFix"/>
<feColorMatrix in="SourceAlpha" type="matrix" values="0 0 0 0 0 0 0 0 0 0 0 0 0 0 0 0 0 0 127 0" result="hardAlpha"/>
<feOffset dx="2" dy="2"/>
<feGaussianBlur stdDeviation="2"/>
<feComposite in2="hardAlpha" operator="out"/>
<feColorMatrix type="matrix" values="0 0 0 0 0 0 0 0 0 0 0 0 0 0 0 0 0 0 0.2 0"/>
<feBlend mode="normal" in2="BackgroundImageFix" result="effect1_dropShadow_2606_2082"/>
<feBlend mode="normal" in="SourceGraphic" in2="effect1_dropShadow_2606_2082" result="shape"/>
</filter>
</defs>
</svg>
