<svg width="38" height="38" viewBox="0 0 38 38" fill="none" xmlns="http://www.w3.org/2000/svg">
<g filter="url(#filter0_d_2606_2088)">
<rect x="2" y="2" width="30" height="30" rx="2" fill="#415464"/>
</g>
<path d="M11.8922 27.8358L7.4374 23.381L8.29017 22.5282L14.1259 23.1073L13.7123 23.521L10.5048 20.3136L11.5231 19.2953L15.9778 23.7501L15.1314 24.5965L9.28931 24.0237L9.70297 23.6101L12.9104 26.8175L11.8922 27.8358ZM15.3199 19.0877L17.4646 16.9431L18.2664 17.7449L16.1218 19.8896L15.3199 19.0877ZM17.2291 20.8442L19.6538 18.4195L20.4811 19.2468L17.0318 22.6961L12.577 18.2413L15.9436 14.8748L16.7709 15.7021L14.429 18.0441L17.2291 20.8442ZM22.3084 17.4195L16.3963 14.4221L17.4654 13.353L22.6775 16.0322L22.1429 16.5668L19.521 11.2974L20.4756 10.3428L25.694 13.0157L25.1785 13.5312L22.5311 8.28725L23.5175 7.30084L26.515 13.213L25.4076 14.3203L20.8192 11.9847L21.112 11.692L23.4157 16.3122L22.3084 17.4195Z" fill="white"/>
<defs>
<filter id="filter0_d_2606_2088" x="0" y="0" width="38" height="38" filterUnits="userSpaceOnUse" color-interpolation-filters="sRGB">
<feFlood flood-opacity="0" result="BackgroundImageFix"/>
<feColorMatrix in="SourceAlpha" type="matrix" values="0 0 0 0 0 0 0 0 0 0 0 0 0 0 0 0 0 0 127 0" result="hardAlpha"/>
<feOffset dx="2" dy="2"/>
<feGaussianBlur stdDeviation="2"/>
<feComposite in2="hardAlpha" operator="out"/>
<feColorMatrix type="matrix" values="0 0 0 0 0 0 0 0 0 0 0 0 0 0 0 0 0 0 0.2 0"/>
<feBlend mode="normal" in2="BackgroundImageFix" result="effect1_dropShadow_2606_2088"/>
<feBlend mode="normal" in="SourceGraphic" in2="effect1_dropShadow_2606_2088" result="shape"/>
</filter>
</defs>
</svg>
