<svg width="38" height="38" viewBox="0 0 38 38" fill="none" xmlns="http://www.w3.org/2000/svg">
<g filter="url(#filter0_d_2606_2085)">
<rect x="2" y="2" width="30" height="30" rx="2" fill="white"/>
</g>
<path fill-rule="evenodd" clip-rule="evenodd" d="M17.8884 8.02707C17.7658 8.10586 17.4455 8.39598 17.1672 8.68028C16.448 9.41487 15.8888 10.2412 15.4469 11.2225C14.9407 12.3466 14.7321 13.463 14.6683 15.3909L14.6492 15.9656L14.5459 15.9346C14.3337 15.8709 14.1501 15.7398 13.9258 15.4917C13.5712 15.0996 13.3543 14.6354 13.181 13.8974C13.0713 13.4297 13.0158 13.344 12.8231 13.344C12.6038 13.344 12.1267 13.7947 11.8351 14.2773C11.2759 15.2025 11.0077 16.3608 11.0003 17.8826C10.9966 18.6388 11.0285 18.9504 11.169 19.5316C11.6732 21.6167 13.185 23.2646 15.0978 23.8142C15.5879 23.955 15.9265 24 16.4957 24C17.2332 24 17.767 23.896 18.4483 23.6195C19.8916 23.0339 21.1055 21.7084 21.6476 20.1263C21.941 19.27 22.0452 18.4598 21.9825 17.5227C21.9072 16.3976 21.7055 15.5291 21.3051 14.606C20.9807 13.8581 20.7206 13.4113 19.8415 12.0922C19.1976 11.1259 19.0007 10.7976 18.7906 10.3392C18.5183 9.74497 18.3857 9.21452 18.3381 8.52929C18.3161 8.21181 18.306 8.16667 18.2417 8.09656C18.1592 8.00663 17.9762 7.97061 17.8884 8.02707ZM17.1064 18.2122C17.1463 18.2977 17.3439 18.6354 17.5454 18.9625C17.949 19.6173 18.1271 19.9914 18.2163 20.371C18.3944 21.1288 18.366 21.6281 18.1125 22.2021C18.0031 22.4497 17.9422 22.5415 17.7481 22.7513C17.3746 23.155 16.984 23.338 16.4957 23.338C16.0074 23.338 15.6168 23.155 15.2433 22.7513C15.0494 22.5417 14.9882 22.4495 14.8788 22.2021C14.7012 21.8007 14.6444 21.4851 14.667 21.0251C14.6839 20.6824 14.7457 20.3077 14.815 20.1281L14.8503 20.0364L14.9236 20.1724C15.0538 20.4143 15.2256 20.5984 15.4133 20.697C15.7297 20.8634 16.0025 20.8546 16.1114 20.6746C16.153 20.6057 16.1662 20.4887 16.1831 20.0423C16.2052 19.4545 16.2379 19.1835 16.3286 18.8373C16.3977 18.5731 16.6118 18.1176 16.7828 17.8707L16.9076 17.6905L16.9708 17.8735C17.0055 17.9742 17.0665 18.1266 17.1064 18.2122Z" fill="#B11227"/>
<defs>
<filter id="filter0_d_2606_2085" x="0" y="0" width="38" height="38" filterUnits="userSpaceOnUse" color-interpolation-filters="sRGB">
<feFlood flood-opacity="0" result="BackgroundImageFix"/>
<feColorMatrix in="SourceAlpha" type="matrix" values="0 0 0 0 0 0 0 0 0 0 0 0 0 0 0 0 0 0 127 0" result="hardAlpha"/>
<feOffset dx="2" dy="2"/>
<feGaussianBlur stdDeviation="2"/>
<feComposite in2="hardAlpha" operator="out"/>
<feColorMatrix type="matrix" values="0 0 0 0 0 0 0 0 0 0 0 0 0 0 0 0 0 0 0.2 0"/>
<feBlend mode="normal" in2="BackgroundImageFix" result="effect1_dropShadow_2606_2085"/>
<feBlend mode="normal" in="SourceGraphic" in2="effect1_dropShadow_2606_2085" result="shape"/>
</filter>
</defs>
</svg>
